<svg width="40" height="24" viewBox="0 0 40 24" fill="none" xmlns="http://www.w3.org/2000/svg">
<path fill-rule="evenodd" clip-rule="evenodd" d="M12.6259 0.0713433C13.9565 -0.00607569 15.2856 0.000117831 16.6162 0.000117831C16.6254 0.000117831 23.3586 0.000117831 23.3586 0.000117831C24.7152 0.000117831 26.0442 -0.00607569 27.3741 0.0713433C28.5831 0.14102 29.7607 0.289665 30.933 0.621792C33.4007 1.32011 35.5556 2.77868 37.1134 4.84655C38.6619 6.90125 39.5 9.41659 39.5 11.9993C39.5 14.5851 38.6619 17.0989 37.1134 19.1536C35.5556 21.2207 33.4007 22.68 30.933 23.3783C29.7607 23.7105 28.5831 23.8583 27.3741 23.9288C26.0442 24.0062 24.7152 23.9992 23.3846 23.9992C23.3754 23.9992 16.6406 24 16.6406 24C15.2856 23.9992 13.9565 24.0062 12.6259 23.9288C11.4177 23.8583 10.2401 23.7105 9.06777 23.3783C6.60006 22.68 4.44512 21.2207 2.88741 19.1536C1.33888 17.0989 0.5 14.5851 0.5 12.0001C0.5 9.41659 1.33888 6.90125 2.88741 4.84655C4.44512 2.77868 6.60006 1.32011 9.06777 0.621792C10.2401 0.289665 11.4177 0.14102 12.6259 0.0713433Z" fill="#D0D3D8"/>
<mask id="mask0_11_207915" style="mask-type:luminance" maskUnits="userSpaceOnUse" x="0" y="0" width="40" height="24">
<path fill-rule="evenodd" clip-rule="evenodd" d="M12.6259 0.0713433C13.9565 -0.00607569 15.2856 0.000117831 16.6162 0.000117831C16.6254 0.000117831 23.3586 0.000117831 23.3586 0.000117831C24.7152 0.000117831 26.0442 -0.00607569 27.3741 0.0713433C28.5831 0.14102 29.7607 0.289665 30.933 0.621792C33.4007 1.32011 35.5556 2.77868 37.1134 4.84655C38.6619 6.90125 39.5 9.41659 39.5 11.9993C39.5 14.5851 38.6619 17.0989 37.1134 19.1536C35.5556 21.2207 33.4007 22.68 30.933 23.3783C29.7607 23.7105 28.5831 23.8583 27.3741 23.9288C26.0442 24.0062 24.7152 23.9992 23.3846 23.9992C23.3754 23.9992 16.6406 24 16.6406 24C15.2856 23.9992 13.9565 24.0062 12.6259 23.9288C11.4177 23.8583 10.2401 23.7105 9.06777 23.3783C6.60006 22.68 4.44512 21.2207 2.88741 19.1536C1.33888 17.0989 0.5 14.5851 0.5 12.0001C0.5 9.41659 1.33888 6.90125 2.88741 4.84655C4.44512 2.77868 6.60006 1.32011 9.06777 0.621792C10.2401 0.289665 11.4177 0.14102 12.6259 0.0713433Z" fill="white"/>
</mask>
<g mask="url(#mask0_11_207915)">
<g filter="url(#filter0_dd_11_207915)">
<path fill-rule="evenodd" clip-rule="evenodd" d="M12.7352 22.5C18.6479 22.5 23.4411 17.799 23.4411 12C23.4411 6.20101 18.6479 1.5 12.7352 1.5C6.82248 1.5 2.0293 6.20101 2.0293 12C2.0293 17.799 6.82248 22.5 12.7352 22.5Z" fill="white"/>
<path d="M12.7352 22.6875C18.748 22.6875 23.6286 17.906 23.6286 12C23.6286 6.09404 18.748 1.3125 12.7352 1.3125C6.72238 1.3125 1.8418 6.09404 1.8418 12C1.8418 17.906 6.72238 22.6875 12.7352 22.6875Z" stroke="black" stroke-opacity="0.04" stroke-width="0.375"/>
</g>
</g>
<defs>
<filter id="filter0_dd_11_207915" x="-4.3457" y="-2.625" width="34.1619" height="33.75" filterUnits="userSpaceOnUse" color-interpolation-filters="sRGB">
<feFlood flood-opacity="0" result="BackgroundImageFix"/>
<feColorMatrix in="SourceAlpha" type="matrix" values="0 0 0 0 0 0 0 0 0 0 0 0 0 0 0 0 0 0 127 0" result="hardAlpha"/>
<feOffset dy="2.25"/>
<feGaussianBlur stdDeviation="0.375"/>
<feColorMatrix type="matrix" values="0 0 0 0 0 0 0 0 0 0 0 0 0 0 0 0 0 0 0.06 0"/>
<feBlend mode="normal" in2="BackgroundImageFix" result="effect1_dropShadow_11_207915"/>
<feColorMatrix in="SourceAlpha" type="matrix" values="0 0 0 0 0 0 0 0 0 0 0 0 0 0 0 0 0 0 127 0" result="hardAlpha"/>
<feOffset dy="2.25"/>
<feGaussianBlur stdDeviation="3"/>
<feColorMatrix type="matrix" values="0 0 0 0 0 0 0 0 0 0 0 0 0 0 0 0 0 0 0.15 0"/>
<feBlend mode="normal" in2="effect1_dropShadow_11_207915" result="effect2_dropShadow_11_207915"/>
<feBlend mode="normal" in="SourceGraphic" in2="effect2_dropShadow_11_207915" result="shape"/>
</filter>
</defs>
</svg>
