<svg width="23" height="18" viewBox="0 0 23 18" fill="none" xmlns="http://www.w3.org/2000/svg">
<g clip-path="url(#clip0_101_53530)">
<path d="M17.4776 3.56494C17.4294 3.51675 17.3911 3.4878 17.3429 3.46855C17.3044 3.44931 17.2563 3.4396 17.1983 3.4396C17.1404 3.4396 17.0924 3.44931 17.0539 3.46855C17.0155 3.4878 16.9673 3.51675 16.9288 3.55523L16.9191 3.56494L15.8309 4.65292C15.6191 4.86476 15.2821 4.89371 15.0413 4.72036C14.9163 4.64339 14.7908 4.56624 14.6465 4.48927C14.4926 4.41231 14.348 4.33516 14.2133 4.2679C14.0687 4.20047 13.9148 4.13303 13.7607 4.0753C13.6258 4.02711 13.4719 3.96938 13.2888 3.91148C13.029 3.8248 12.8651 3.58401 12.8651 3.32415V1.6582C12.8651 1.60047 12.8554 1.54256 12.8364 1.50426C12.8171 1.46578 12.7882 1.41758 12.7497 1.38863C12.7112 1.35015 12.6727 1.32119 12.6341 1.30195C12.5956 1.28271 12.5378 1.27318 12.4801 1.27318H10.381C10.323 1.27318 10.275 1.28271 10.2365 1.29242C10.1981 1.31166 10.1499 1.34061 10.1017 1.38881C10.0632 1.42729 10.0342 1.46578 10.0247 1.50444C10.0055 1.54292 9.99575 1.60065 9.99575 1.65838V3.18946C9.99575 3.49769 9.7742 3.74801 9.48539 3.80574C9.32157 3.84422 9.16763 3.88271 9.03276 3.92137C8.87864 3.96956 8.73424 4.01758 8.58012 4.07548C8.43572 4.13321 8.2816 4.19094 8.1372 4.26808C7.98327 4.33552 7.84839 4.41249 7.71352 4.47992C7.46319 4.61462 7.17421 4.56642 6.98179 4.374L5.778 3.17993C5.76847 3.17022 5.76847 3.17021 5.76847 3.16068C5.7298 3.1222 5.69132 3.09325 5.65284 3.07401C5.61417 3.05476 5.57569 3.05476 5.51796 3.05476C5.46024 3.05476 5.41204 3.06447 5.37356 3.08372C5.32536 3.10296 5.28688 3.13191 5.23869 3.18011L3.77504 4.65328C3.72685 4.70148 3.69807 4.73996 3.67865 4.78815C3.65941 4.82664 3.64988 4.87483 3.64988 4.93256C3.64988 4.99046 3.65941 5.03848 3.67865 5.07714C3.69789 5.11563 3.72685 5.16382 3.76533 5.2023V5.21202L4.85349 6.30017C5.06533 6.51201 5.0941 6.84902 4.92092 7.08981C4.84396 7.21497 4.76681 7.34014 4.68984 7.48454C4.61287 7.63865 4.53573 7.78306 4.46847 7.91793C4.40103 8.06234 4.3336 8.21645 4.27587 8.37057C4.22768 8.50544 4.16995 8.65938 4.11204 8.84244C4.02537 9.10248 3.78457 9.26612 3.52472 9.26612H1.85876C1.80104 9.26612 1.74313 9.27566 1.70483 9.2949C1.66616 9.31414 1.62768 9.34309 1.5892 9.37204C1.55053 9.41053 1.52176 9.44919 1.51205 9.48768C1.49281 9.52616 1.4831 9.58389 1.4831 9.64161V9.81155C1.05941 9.94085 0.64922 10.13 0.260245 10.3822V9.62237C0.260245 9.401 0.298729 9.19869 0.375876 8.99638C0.452844 8.80396 0.578007 8.6306 0.732122 8.46696C0.886057 8.31284 1.06912 8.18768 1.26172 8.11071C1.45432 8.03374 1.66616 7.99508 1.88754 7.99508H3.1201C3.12981 7.96613 3.14905 7.92764 3.15858 7.89887C3.22602 7.72551 3.30317 7.55216 3.38013 7.3788C3.46681 7.19573 3.54378 7.02255 3.63046 6.86844L3.65941 6.81053L2.91797 6.05956C2.76385 5.90544 2.63869 5.73227 2.56172 5.52996C2.47504 5.32765 2.43656 5.11581 2.43656 4.90396C2.43656 4.68259 2.47504 4.48046 2.56172 4.27815C2.64822 4.07602 2.76385 3.90267 2.91797 3.74855L4.38161 2.2752V2.26567C4.53555 2.11155 4.7089 1.99592 4.9015 1.90942C5.10381 1.82274 5.30594 1.78426 5.52749 1.78426C5.74887 1.78426 5.96071 1.83245 6.15331 1.90942C6.3459 1.99592 6.51908 2.11155 6.66367 2.2752L7.53998 3.1418C7.56894 3.13209 7.59771 3.11303 7.61695 3.10332C7.7806 3.02617 7.95395 2.95891 8.13702 2.88195C8.31038 2.81451 8.49327 2.75678 8.67633 2.69888C8.70529 2.68917 8.72453 2.67964 8.7533 2.67964V1.62924C8.7533 1.40787 8.79197 1.19585 8.87846 1.00343C8.95561 0.810833 9.08077 0.637476 9.23471 0.48354L9.24442 0.47383C9.39836 0.319894 9.57171 0.204083 9.76449 0.127115C9.95727 0.0501478 10.1691 0.00195312 10.381 0.00195312H12.4801C12.7015 0.00195312 12.9038 0.040437 13.1059 0.117584C13.3082 0.194732 13.4816 0.319894 13.6355 0.47383C13.7895 0.627765 13.9148 0.810833 13.9918 1.00343C14.0687 1.19603 14.1074 1.40787 14.1074 1.62924V2.8618C14.1362 2.87152 14.1747 2.89076 14.2036 2.90029C14.377 2.96773 14.5503 3.04487 14.7237 3.12184C14.9066 3.20852 15.0799 3.28549 15.2341 3.37216L15.2918 3.40112L16.0427 2.65967C16.1969 2.50556 16.3702 2.3804 16.5724 2.30343C16.7747 2.21675 16.9865 2.17827 17.1982 2.17827C17.4195 2.17827 17.6218 2.21675 17.824 2.30343L17.8242 2.32249C18.0263 2.40917 18.1996 2.5248 18.3536 2.67874L19.8268 4.14238H19.8365C19.9906 4.2965 20.106 4.46985 20.1927 4.66245C20.2792 4.86476 20.3179 5.06689 20.3179 5.28826C20.3179 5.50964 20.2695 5.72166 20.1927 5.91408C20.106 6.10667 19.9906 6.28003 19.8268 6.42444L18.9603 7.30075C18.9699 7.32971 18.9891 7.35848 18.9988 7.38743C19.0758 7.55126 19.1432 7.72461 19.2107 7.88826C19.2107 7.89797 19.2204 7.9075 19.2204 7.91721C19.2878 8.08086 19.3455 8.26375 19.4034 8.45653L19.4225 8.52396H20.4819C20.7033 8.52396 20.9151 8.56245 21.1077 8.64912C21.3003 8.72609 21.4736 8.85143 21.6278 9.00537L21.6375 9.01508C21.7914 9.1692 21.907 9.34237 21.9842 9.53515C22.0612 9.72775 22.1092 9.93959 22.1092 10.1514V10.466H21.809C21.3661 10.0603 20.8624 9.73225 20.3119 9.50386C20.2693 9.48408 20.2258 9.46556 20.181 9.44847C19.4579 9.17315 18.8253 9.05698 18.2595 9.05554C18.2396 8.98199 18.2196 8.907 18.1996 8.83201C18.1514 8.68761 18.1034 8.53349 18.036 8.36985C18.036 8.36032 18.0263 8.35061 18.0263 8.34089C17.9686 8.18696 17.9107 8.05209 17.8529 7.91721C17.7855 7.77281 17.7181 7.6284 17.6411 7.49353C17.5062 7.24303 17.5544 6.95422 17.747 6.76162L18.9411 5.55801C18.9411 5.5483 18.9508 5.5483 18.9601 5.5483C18.9988 5.50982 19.0276 5.47133 19.0468 5.43267C19.0661 5.39418 19.0661 5.3557 19.0661 5.29779C19.0661 5.23989 19.0564 5.19187 19.0371 5.15339C19.0181 5.1052 18.9889 5.06671 18.9409 5.01852L17.4677 3.55487L17.4776 3.56494ZM4.92722 17.2129C4.13506 17.8142 3.2458 18.2915 1.94005 17.7946C1.0934 17.4736 0.399434 16.7311 0.0117188 15.7956C3.38481 17.3243 4.59255 12.9367 0.598507 12.8045C1.81758 11.3367 3.61553 11.3486 5.06821 12.425C5.75498 12.9329 6.14126 13.1879 6.53671 13.2992C6.75304 13.3632 6.97028 13.3754 7.24488 13.376C8.17281 13.3792 13.0369 13.2733 14.0215 13.2526C15.8753 13.2163 16.8126 10.3658 19.4495 11.3705C20.2961 11.6915 20.9899 12.434 21.3778 13.3695C18.0047 11.8408 16.797 16.2285 20.791 16.3606C19.5719 17.8284 17.7742 17.8167 16.3215 16.7401C15.6849 16.2668 15.283 15.7102 14.027 15.7454C13.1559 15.7825 8.30193 15.8391 7.42867 15.8977C7.08159 15.9186 6.85123 15.953 6.63202 16.0384C6.23567 16.1896 5.87655 16.4978 4.93945 17.2121L4.92722 17.2129ZM11.1706 6.22249C11.4885 6.22249 11.8061 6.25144 12.1143 6.3187C12.4127 6.3766 12.7112 6.47281 13.0097 6.59797C13.289 6.72313 13.5586 6.86772 13.8089 7.03137C14.0592 7.19501 14.2903 7.38761 14.5021 7.59945C14.714 7.81129 14.9066 8.04238 15.0702 8.30241C15.2436 8.55274 15.388 8.8223 15.5034 9.10158C15.5131 9.12064 15.5131 9.14006 15.5227 9.14977C15.6223 9.39039 15.7004 9.63819 15.757 9.88061C15.4819 10.0635 15.2189 10.2633 14.9612 10.4656H14.6259C14.616 10.3928 14.6037 10.3199 14.5886 10.2475C14.5404 10.0259 14.4827 9.82378 14.4056 9.631C14.3959 9.62147 14.3959 9.61194 14.3865 9.59252C14.2901 9.37115 14.1842 9.16902 14.0592 8.98595C13.9341 8.80288 13.7992 8.6297 13.6451 8.47559C13.4909 8.32165 13.3176 8.17707 13.1347 8.06162C12.9516 7.93645 12.7493 7.83053 12.528 7.73432C12.3258 7.64765 12.1043 7.58021 11.8732 7.53201C11.6518 7.48382 11.411 7.46458 11.1702 7.46458C10.9294 7.46458 10.6984 7.48382 10.4673 7.53201C10.2459 7.58021 10.0438 7.63793 9.85099 7.71508C9.84128 7.72479 9.83175 7.72479 9.81251 7.73432C9.59095 7.83053 9.38882 7.93645 9.20576 8.06162C9.02269 8.18678 8.84951 8.32165 8.6954 8.47559C8.54128 8.6297 8.39688 8.80306 8.28125 8.98595C8.15608 9.16902 8.05016 9.37115 7.95395 9.59252C7.86728 9.79483 7.79984 10.0162 7.75164 10.2475C7.73618 10.3183 7.72377 10.3913 7.71406 10.4656H6.47466C6.49031 10.3077 6.51441 10.1513 6.54804 9.99714C6.60576 9.69862 6.70215 9.4001 6.82731 9.10176C6.95248 8.82248 7.09706 8.55274 7.26071 8.30259C7.42435 8.05209 7.61695 7.821 7.82879 7.59963C8.04063 7.38779 8.27172 7.19519 8.52204 7.03155C8.77236 6.85819 9.04193 6.71378 9.32121 6.59815C9.34045 6.58862 9.35987 6.58862 9.3694 6.57891C9.64868 6.46328 9.93749 6.3766 10.2168 6.31887C10.5248 6.26115 10.8426 6.22267 11.1603 6.22267L11.1706 6.22249Z" fill="#F44336"/>
</g>
<defs>
<clipPath id="clip0_101_53530">
<rect width="22.0976" height="18" fill="white"/>
</clipPath>
</defs>
</svg>
